<svg width="24" height="8" viewBox="0 0 14 8" fill="none" xmlns="http://www.w3.org/2000/svg">
<path d="M7.20322 5.61054L7.20342 5.61033L11.9106 0.976229C12.2175 0.674057 12.7132 0.674676 13.0194 0.977571C13.0194 0.977574 13.0194 0.977579 13.0194 0.977582L12.8436 1.15531C12.9479 1.25848 13 1.3936 13 1.52868C13 1.66423 12.9476 1.7997 12.8426 1.903L7.20322 5.61054ZM7.20322 5.61054C7.09184 5.72044 6.90847 5.72071 6.79637 5.61007L6.79615 5.60986L2.08941 0.976227L2.0894 0.976219C1.78248 0.674098 1.28679 0.674663 0.980598 0.977582L0.980575 0.977605C0.672621 1.28234 0.673199 1.77717 0.981968 2.08116L0.981971 2.08116L5.68798 6.71407C6.41184 7.42844 7.58778 7.42861 8.31134 6.71476L7.20322 5.61054Z" fill="#677389" stroke="#677389" stroke-width="0.5"/>
</svg>
