<svg width="20" height="24" viewBox="0 0 20 24" fill="none" xmlns="http://www.w3.org/2000/svg">
<path d="M19.8783 17.8552C19.783 17.3462 19.2931 17.011 18.7842 17.1064C18.2753 17.2018 17.94 17.6916 18.0354 18.2005C18.1061 18.5781 17.9401 18.8471 17.835 18.9739C17.73 19.1003 17.4968 19.3125 17.114 19.3125H2.88315C2.50041 19.3125 2.26716 19.1004 2.16221 18.9739C2.05702 18.8471 1.89104 18.5781 1.96182 18.2005C2.22774 16.7815 2.76132 15.8482 3.27732 14.9455C3.90399 13.8494 4.55199 12.7159 4.55199 10.9687V9.56245C4.55199 6.60619 6.95494 4.16845 9.9099 4.12556H10.0871C13.0321 4.16836 15.427 6.60609 15.427 9.5625V10.9688C15.427 12.4558 15.9135 13.479 16.3694 14.3214C16.5391 14.6349 16.8616 14.8128 17.1947 14.8128C17.3454 14.8128 17.4983 14.7764 17.6401 14.6996C18.0955 14.4532 18.2648 13.8842 18.0183 13.4289C17.5647 12.5907 17.302 11.9194 17.302 10.9688V9.5625C17.302 7.63308 16.5547 5.81077 15.1976 4.43128C14.0347 3.24905 12.5414 2.51128 10.927 2.30766V0.9375C10.927 0.419719 10.5073 0 9.98954 0C9.47176 0 9.05204 0.419719 9.05204 0.9375V2.31042C5.46807 2.77542 2.67704 5.86786 2.67704 9.5625V10.9688C2.67704 12.2178 2.22362 13.0109 1.64959 14.015C1.08409 15.0042 0.44307 16.1254 0.118882 17.8552C-0.0358521 18.6809 0.183054 19.5251 0.719492 20.1714C1.25541 20.8172 2.04409 21.1875 2.88315 21.1875H7.19513C7.19513 22.7383 8.45682 24 10.0076 24C11.5584 24 12.8201 22.7383 12.8201 21.1875H17.114C17.9531 21.1875 18.7418 20.8172 19.2777 20.1714C19.8141 19.5252 20.033 18.6809 19.8783 17.8552ZM10.0076 22.125C9.49069 22.125 9.07013 21.7044 9.07013 21.1875H10.9451C10.9451 21.7044 10.5246 22.125 10.0076 22.125Z" fill="#C8CFE2"/>
</svg>
