<svg width="68" height="28" viewBox="0 0 68 28" fill="none" xmlns="http://www.w3.org/2000/svg">
<path d="M28.4351 8.5548H26.7245V5.52129H32.1894V11.501C31.4563 12.0466 30.6122 12.4613 29.6347 12.745C28.6572 13.0287 27.6354 13.1815 26.5913 13.1815C24.4808 13.1815 22.8591 12.614 21.7262 11.501C20.5932 10.3662 20.0156 8.77304 20.0156 6.65613C20.0156 4.53921 20.571 2.92425 21.704 1.74576C22.8369 0.567271 24.4142 -0.0219727 26.4135 -0.0219727C27.9908 -0.0219727 29.2793 0.349033 30.2789 1.09104C31.2786 1.83305 31.8562 2.8806 32.0783 4.23368L27.9908 4.58286C27.8797 4.14638 27.702 3.81903 27.4576 3.62261C27.2133 3.4262 26.8578 3.3389 26.3913 3.3389C25.6138 3.3389 25.0584 3.60079 24.703 4.10274C24.3475 4.60468 24.192 5.41217 24.192 6.54701C24.192 7.72549 24.392 8.57662 24.7918 9.07857C25.1917 9.58052 25.8804 9.84241 26.8134 9.84241C27.4798 9.84241 28.0352 9.75511 28.4351 9.5587V8.5548Z" fill="#343843"/>
<path d="M43.2072 9.8204C43.0073 10.9116 42.5408 11.7627 41.7632 12.3083C40.9857 12.8757 39.9416 13.1595 38.6309 13.1595C37.0315 13.1595 35.8096 12.7448 34.9655 11.9373C34.1213 11.108 33.6992 9.92952 33.6992 8.3582C33.6992 6.78689 34.1213 5.54293 34.9877 4.64815C35.8541 3.75337 37.0537 3.31689 38.5865 3.31689C40.0527 3.31689 41.2079 3.73155 42.0298 4.58268C42.8518 5.43381 43.2739 6.59047 43.2739 8.09632V9.03474H37.298C37.3203 9.58034 37.4313 9.97317 37.6313 10.2132C37.8312 10.4533 38.1422 10.5842 38.5865 10.5842C39.1863 10.5842 39.564 10.3224 39.7195 9.8204H43.2072ZM39.8083 7.17972C39.7861 6.72142 39.675 6.37223 39.4973 6.17582C39.3196 5.9794 39.0308 5.87029 38.6532 5.87029C37.8312 5.87029 37.3869 6.30676 37.3203 7.17972H39.8083Z" fill="#343843"/>
<path d="M51.8504 12.6139C51.0285 12.8758 50.1843 13.0286 49.3401 13.0286C48.0295 13.0286 47.1187 12.7449 46.5411 12.1556C45.9857 11.5664 45.6969 10.6061 45.6969 9.25305V6.52507H44.1641V3.57885H45.6969V1.17822H49.5401V3.57885H51.495V6.52507H49.5401V9.03481C49.5401 9.36217 49.6289 9.60223 49.7844 9.755C49.94 9.90776 50.1843 9.99506 50.5175 9.99506C50.7841 9.99506 51.0729 9.95141 51.3839 9.88594L51.8504 12.6139Z" fill="#343843"/>
<path d="M27.8353 27.5197V22.8057H24.4364V27.5197H20.3711V14.9709H24.4364V19.2921H27.8353V14.9709H31.9007V27.5197H27.8353Z" fill="#343843"/>
<path d="M33.8555 17.3497V14.9709H37.6764V17.3497H33.8555ZM33.8555 27.5197V18.2445H37.6764V27.5197H33.8555Z" fill="#343843"/>
<path d="M39.4766 27.5197V18.2446H43.2087V19.2703C43.8307 18.4846 44.6971 18.0918 45.8078 18.0918C46.1633 18.0918 46.4743 18.1354 46.7853 18.2009L46.3632 21.3217C45.9855 21.2563 45.6301 21.2126 45.2969 21.2126C44.7415 21.2126 44.275 21.3217 43.9418 21.54C43.5419 21.8018 43.342 22.2383 43.342 22.8712V27.5415H39.4766V27.5197Z" fill="#343843"/>
<path d="M56.7365 24.4644C56.5366 25.5556 56.0701 26.4068 55.2925 26.9524C54.515 27.5198 53.4709 27.8035 52.1602 27.8035C50.5608 27.8035 49.3389 27.3888 48.4948 26.5814C47.6506 25.7521 47.2285 24.5736 47.2285 23.0022C47.2285 21.4309 47.6506 20.187 48.517 19.2922C49.3834 18.3974 50.583 17.9609 52.1158 17.9609C53.582 17.9609 54.7372 18.3756 55.5591 19.2267C56.3811 20.0778 56.8032 21.2345 56.8032 22.7404V23.6788H50.8273C50.8496 24.2244 50.9606 24.6172 51.1606 24.8573C51.3605 25.0973 51.6715 25.2283 52.1158 25.2283C52.7156 25.2283 53.0933 24.9664 53.2488 24.4644H56.7365ZM53.3154 21.8238C53.2932 21.3655 53.1821 21.0163 53.0044 20.8199C52.8267 20.6234 52.5379 20.5143 52.1602 20.5143C51.3383 20.5143 50.894 20.9508 50.8273 21.8238H53.3154Z" fill="#343843"/>
<path d="M64.3122 27.5197V26.6031C63.6902 27.4105 62.8238 27.8034 61.7353 27.8034C60.5579 27.8034 59.6471 27.3887 59.0028 26.5594C58.3586 25.7301 58.0254 24.5516 58.0254 23.0239C58.0254 21.4526 58.3808 20.2087 59.0695 19.3139C59.7582 18.4191 60.7134 17.9608 61.8908 17.9608C62.3795 17.9608 62.8238 18.0481 63.2237 18.2227C63.6236 18.3973 63.9346 18.6374 64.1567 18.9647V14.9709H67.9777V27.5197H64.3122ZM64.1567 22.7402C64.1567 22.1073 64.0679 21.649 63.8901 21.3435C63.7124 21.0598 63.4236 20.9289 63.046 20.9289C62.6461 20.9289 62.3351 21.0816 62.1574 21.3872C61.9574 21.6927 61.8686 22.1728 61.8686 22.8275C61.8686 23.4822 61.9574 23.9624 62.1574 24.2897C62.3573 24.5953 62.6461 24.7699 63.046 24.7699C63.4014 24.7699 63.668 24.6389 63.8679 24.3552C64.0679 24.0497 64.1567 23.5914 64.1567 22.9803V22.7402Z" fill="#343843"/>
<path d="M6.66449 14.4254H0C0 6.91795 6.19797 0.829102 13.8177 0.829102H14.9285V7.37626H13.8177C9.86344 7.37626 6.66449 10.5407 6.66449 14.4254Z" fill="#2960FF"/>
<path d="M1.08829 27.9996H0.0664062V21.4524H1.08829C5.04256 21.4524 8.26373 18.288 8.26373 14.4033H14.9282C14.9282 21.9107 8.70802 27.9996 1.08829 27.9996Z" fill="#2960FF"/>
</svg>
